<svg xmlns="http://www.w3.org/2000/svg" viewBox="0 0 72.87 72.87"><defs><style>.cls-1{fill:#0b141f;}.cls-2{fill:#fff;}.cls-3{fill:none;stroke:#fff;stroke-miterlimit:10;}</style></defs><g id="Layer_2" data-name="Layer 2"><g id="Layer_1-2" data-name="Layer 1"><rect class="cls-1" width="72.87" height="72.87"/><path class="cls-2" d="M13.86,19.45a1.44,1.44,0,0,1,1.45-1.39H24.1c5.82,0,10.68,2.31,10.68,9.62,0,5.86-3.13,8.55-7.17,9.37l7.12,13.51a1.35,1.35,0,0,1,.19.68,2.44,2.44,0,0,1-2.4,2.06c-.82,0-1.4-.77-1.83-1.58L23.43,37.63H17.9V51.76c0,1-1,1.45-2,1.45s-2-.48-2-1.45Zm4,2.26V34.26h6.2c4,0,6.64-1.73,6.64-6.3s-2.65-6.25-6.64-6.25Z"/><path class="cls-2" d="M41.94,43.59c0,5.63,2.74,8.17,8,8.17,6.35,0,7-3.79,7.36-6.29,0-.44.14-.87.86-.87S59,44.89,59,46c0,3.71-3.22,7.51-9.38,7.51-5.14,0-9.42-2.7-9.42-9.91V28c0-7.21,4.37-9.9,9.57-9.9,6.15,0,9.23,3.8,9.23,7.55,0,1.1-.29,1.35-.87,1.35-.82,0-.86-.53-.86-.87-.15-2.31-1.3-6.3-7.55-6.3-5,0-7.79,2.6-7.79,8.17Z"/><path class="cls-3" d="M28.07,63.44H9V8.49h55v55H44.67"/></g></g></svg>