<svg xmlns="http://www.w3.org/2000/svg" viewBox="0 0 240.95 39.65"><defs><style>.cls-1{fill:#0b141f;}.cls-2{fill:none;stroke:#0b141f;stroke-miterlimit:10;}</style></defs><g id="Layer_2" data-name="Layer 2"><g id="Layer_1-2" data-name="Layer 1"><path class="cls-1" d="M20,30.91a.9.9,0,0,1-.67-.31,3.12,3.12,0,0,1-.51-.72l-4.7-9.17H10.45v9.2a.74.74,0,0,1-.41.7,1.73,1.73,0,0,1-.9.24,1.81,1.81,0,0,1-.9-.24.75.75,0,0,1-.42-.7v-21a.8.8,0,0,1,.27-.62A1.06,1.06,0,0,1,8.76,8h5.73A10.26,10.26,0,0,1,18,8.55a5.23,5.23,0,0,1,2.52,1.94,6.57,6.57,0,0,1,.93,3.74,7.15,7.15,0,0,1-.61,3.16,4.73,4.73,0,0,1-1.67,2,6.69,6.69,0,0,1-2.38,1l4.63,8.8a.89.89,0,0,1,.1.23.82.82,0,0,1,0,.21,1,1,0,0,1-.24.65,1.6,1.6,0,0,1-.59.5A1.54,1.54,0,0,1,20,30.91ZM10.45,18.52h4a4.9,4.9,0,0,0,3.13-.94,3.81,3.81,0,0,0,1.19-3.16,3.74,3.74,0,0,0-1.19-3.14,5,5,0,0,0-3.13-.93h-4Z"/><path class="cls-1" d="M30.82,30.85a1.78,1.78,0,0,1-.89-.24.75.75,0,0,1-.42-.7V22a.71.71,0,0,0-.06-.31L23,9.6a1.76,1.76,0,0,1-.1-.3,1.11,1.11,0,0,1,0-.23.78.78,0,0,1,.25-.56,1.85,1.85,0,0,1,.61-.4A2,2,0,0,1,24.41,8a.77.77,0,0,1,.54.18,1.71,1.71,0,0,1,.4.51L30.82,19.4,36.33,8.66a1.46,1.46,0,0,1,.41-.51A.79.79,0,0,1,37.27,8a2,2,0,0,1,.7.14,1.75,1.75,0,0,1,.61.4.75.75,0,0,1,.25.56,1.11,1.11,0,0,1,0,.23,1.71,1.71,0,0,1-.09.3L32.23,21.68a.52.52,0,0,0-.09.31v7.92a.76.76,0,0,1-.41.7A1.74,1.74,0,0,1,30.82,30.85Z"/><path class="cls-1" d="M39.49,30.85a2.17,2.17,0,0,1-.7-.14,1.78,1.78,0,0,1-.63-.39.8.8,0,0,1-.23-.57,1.13,1.13,0,0,1,0-.25L44.37,8.69A1,1,0,0,1,45,8a2.25,2.25,0,0,1,1-.22A2.22,2.22,0,0,1,47,8a1.12,1.12,0,0,1,.6.67L54,29.5a.56.56,0,0,1,.06.22.79.79,0,0,1-.26.57,2.23,2.23,0,0,1-.65.4,1.78,1.78,0,0,1-.72.16,1.22,1.22,0,0,1-.59-.14.74.74,0,0,1-.34-.46l-1.41-4.66H41.84l-1.35,4.66a.73.73,0,0,1-.36.46A1.41,1.41,0,0,1,39.49,30.85Zm3-7.42h7L46,11.67Z"/><path class="cls-1" d="M58.08,30.85a1.75,1.75,0,0,1-.89-.24.74.74,0,0,1-.43-.7v-21a.71.71,0,0,1,.43-.7A1.94,1.94,0,0,1,58.08,8a1.8,1.8,0,0,1,.84.19,2.15,2.15,0,0,1,.63.55,5.7,5.7,0,0,1,.56.92l7.76,15.24v-16a.74.74,0,0,1,.42-.69,2,2,0,0,1,.9-.22,1.93,1.93,0,0,1,.9.22.74.74,0,0,1,.41.69v21a.76.76,0,0,1-.41.7,1.73,1.73,0,0,1-.9.24,1.44,1.44,0,0,1-.93-.35,3,3,0,0,1-.7-.84L59.39,13.92v16a.74.74,0,0,1-.41.7A1.73,1.73,0,0,1,58.08,30.85Z"/><path class="cls-1" d="M81.26,31a7.27,7.27,0,0,1-3.06-.65,4.9,4.9,0,0,1-2.24-2,7.43,7.43,0,0,1-.83-3.76V14.42A7.22,7.22,0,0,1,76,10.66a5.12,5.12,0,0,1,2.27-2A7.35,7.35,0,0,1,81.36,8a7,7,0,0,1,3.33.72,5.06,5.06,0,0,1,2,1.85,4.5,4.5,0,0,1,.68,2.35,1.22,1.22,0,0,1-.14.7.52.52,0,0,1-.43.17c-.27,0-.43-.06-.48-.2a1.13,1.13,0,0,1-.08-.36A6,6,0,0,0,86,11.93a3.75,3.75,0,0,0-2.19-2.41,6.27,6.27,0,0,0-2.49-.42,5.08,5.08,0,0,0-3.77,1.3,5.46,5.46,0,0,0-1.3,4V24.59a5.47,5.47,0,0,0,1.31,4,5.37,5.37,0,0,0,3.88,1.28,6.12,6.12,0,0,0,2.47-.41,3.34,3.34,0,0,0,1.38-1A4,4,0,0,0,86,27.12c.12-.48.22-.91.28-1.31a1,1,0,0,1,.13-.39c.06-.11.2-.17.43-.17a.52.52,0,0,1,.43.18,1.35,1.35,0,0,1,.14.72,4.37,4.37,0,0,1-.69,2.32,5.15,5.15,0,0,1-2.05,1.85A7.15,7.15,0,0,1,81.26,31Z"/><path class="cls-1" d="M97.35,31a7.23,7.23,0,0,1-3.1-.65,4.84,4.84,0,0,1-2.19-2,7.55,7.55,0,0,1-.81-3.76V8.51a.45.45,0,0,1,.17-.41.65.65,0,0,1,.78,0,.45.45,0,0,1,.17.41V24.59a5.41,5.41,0,0,0,1.32,4,5,5,0,0,0,3.66,1.3,5,5,0,0,0,3.68-1.3,5.41,5.41,0,0,0,1.33-4V8.51a.45.45,0,0,1,.17-.41.65.65,0,0,1,.39-.13.68.68,0,0,1,.39.13.48.48,0,0,1,.17.41V24.59a7.55,7.55,0,0,1-.81,3.76,4.84,4.84,0,0,1-2.21,2A7.3,7.3,0,0,1,97.35,31Z"/><path class="cls-1" d="M109.11,30.85a.64.64,0,0,1-.39-.14.54.54,0,0,1-.17-.42V8.51a.5.5,0,0,1,.17-.43.77.77,0,0,1,.39-.11.55.55,0,0,1,.41.22,3.59,3.59,0,0,1,.35.49,4,4,0,0,1,.21.42l9.58,19V8.51a.48.48,0,0,1,.17-.41.7.7,0,0,1,.39-.13.65.65,0,0,1,.39.13.46.46,0,0,1,.18.41V30.29a.52.52,0,0,1-.18.42.6.6,0,0,1-.39.14c-.21,0-.38-.14-.53-.41s-.27-.51-.37-.72l-9.64-19V30.29a.54.54,0,0,1-.17.42A.65.65,0,0,1,109.11,30.85Z"/><path class="cls-1" d="M126.54,30.85a.64.64,0,0,1-.39-.14.54.54,0,0,1-.17-.42V8.51a.5.5,0,0,1,.17-.43.77.77,0,0,1,.39-.11.55.55,0,0,1,.41.22,3.59,3.59,0,0,1,.35.49,4,4,0,0,1,.21.42l9.58,19V8.51a.48.48,0,0,1,.17-.41.7.7,0,0,1,.39-.13.65.65,0,0,1,.39.13.46.46,0,0,1,.18.41V30.29a.52.52,0,0,1-.18.42.6.6,0,0,1-.39.14c-.21,0-.38-.14-.53-.41s-.27-.51-.37-.72l-9.64-19V30.29a.54.54,0,0,1-.17.42A.65.65,0,0,1,126.54,30.85Z"/><path class="cls-1" d="M144,30.85a.64.64,0,0,1-.39-.14.54.54,0,0,1-.17-.42V8.51a.48.48,0,0,1,.17-.41.67.67,0,0,1,.79,0,.48.48,0,0,1,.17.41V30.29a.54.54,0,0,1-.17.42A.65.65,0,0,1,144,30.85Z"/><path class="cls-1" d="M150.29,30.85a.64.64,0,0,1-.39-.14.54.54,0,0,1-.17-.42V8.51a.5.5,0,0,1,.17-.43.77.77,0,0,1,.39-.11.55.55,0,0,1,.41.22,3.59,3.59,0,0,1,.35.49,4,4,0,0,1,.21.42l9.58,19V8.51A.48.48,0,0,1,161,8.1.7.7,0,0,1,161.4,8a.65.65,0,0,1,.39.13.46.46,0,0,1,.18.41V30.29a.52.52,0,0,1-.18.42.6.6,0,0,1-.39.14c-.21,0-.38-.14-.53-.41s-.27-.51-.37-.72l-9.64-19V30.29a.54.54,0,0,1-.17.42A.65.65,0,0,1,150.29,30.85Z"/><path class="cls-1" d="M173,31a7.18,7.18,0,0,1-3.09-.65,4.84,4.84,0,0,1-2.19-2,7.43,7.43,0,0,1-.82-3.76V14.42a7.43,7.43,0,0,1,.82-3.76,4.84,4.84,0,0,1,2.19-2A7.18,7.18,0,0,1,173,8a7.26,7.26,0,0,1,3.31.69,5.19,5.19,0,0,1,2.09,1.86,4.87,4.87,0,0,1,.74,2.62.63.63,0,0,1-.17.47.6.6,0,0,1-.4.15.5.5,0,0,1-.37-.14.59.59,0,0,1-.19-.42,5.08,5.08,0,0,0-.84-2.32,4,4,0,0,0-1.73-1.34A6.36,6.36,0,0,0,173,9.1a5,5,0,0,0-3.66,1.3,5.46,5.46,0,0,0-1.31,4V24.59a5.45,5.45,0,0,0,1.31,4,5.83,5.83,0,0,0,7.34,0,5.37,5.37,0,0,0,1.33-4V20h-5a.51.51,0,0,1-.4-.17.63.63,0,0,1,0-.79.51.51,0,0,1,.4-.17h5.57A.51.51,0,0,1,179,19a.69.69,0,0,1,.14.43v5.16a7.43,7.43,0,0,1-.82,3.76,4.81,4.81,0,0,1-2.2,2A7.35,7.35,0,0,1,173,31Z"/><path class="cls-1" d="M184.34,30.85a.6.6,0,0,1-.39-.14.51.51,0,0,1-.17-.42V8.51A.45.45,0,0,1,184,8.1a.65.65,0,0,1,.78,0,.45.45,0,0,1,.17.41v9.92h10V8.51a.45.45,0,0,1,.17-.41.65.65,0,0,1,.39-.13.7.7,0,0,1,.39.13.48.48,0,0,1,.17.41V30.29a.54.54,0,0,1-.17.42.64.64,0,0,1-.39.14.6.6,0,0,1-.39-.14.51.51,0,0,1-.17-.42V19.55h-10V30.29a.51.51,0,0,1-.17.42A.6.6,0,0,1,184.34,30.85Z"/><path class="cls-1" d="M200,30.85a.65.65,0,0,1-.26-.06.56.56,0,0,1-.22-.18.45.45,0,0,1-.08-.26.44.44,0,0,1,0-.19l6.79-21.94a.54.54,0,0,1,.22-.34.7.7,0,0,1,.35-.09.63.63,0,0,1,.36.11.55.55,0,0,1,.23.32l6.73,21.94a.35.35,0,0,1,0,.16.45.45,0,0,1-.09.25.78.78,0,0,1-.24.2.61.61,0,0,1-.3.08.46.46,0,0,1-.29-.1.52.52,0,0,1-.21-.31l-1.59-5.13h-9.33l-1.56,5.13a.49.49,0,0,1-.22.31A.62.62,0,0,1,200,30.85Zm2.48-6.67h8.63l-4.28-14Z"/><path class="cls-1" d="M218.07,30.85a.64.64,0,0,1-.39-.14.54.54,0,0,1-.17-.42V8.51a.5.5,0,0,1,.17-.43.77.77,0,0,1,.39-.11.57.57,0,0,1,.41.22,3.54,3.54,0,0,1,.34.49,2.94,2.94,0,0,1,.22.42l6.07,12,6.11-12c.06-.1.14-.24.23-.42a2.38,2.38,0,0,1,.34-.49.6.6,0,0,1,.4-.22.7.7,0,0,1,.4.11.49.49,0,0,1,.16.43V30.29a.54.54,0,0,1-.17.42.63.63,0,0,1-.79,0,.54.54,0,0,1-.17-.42V10.73l-5.91,11.39a1.92,1.92,0,0,1-.3.45.39.39,0,0,1-.3.14.43.43,0,0,1-.28-.14,1.45,1.45,0,0,1-.31-.45l-5.88-11.39V30.29a.52.52,0,0,1-.18.42A.6.6,0,0,1,218.07,30.85Z"/><path class="cls-1" d="M91.29,39.62a.14.14,0,0,1-.11-.06.57.57,0,0,1-.08-.13l-.88-1.7H89.5v1.74a.11.11,0,0,1-.06.11.19.19,0,0,1-.12,0,.18.18,0,0,1-.13,0,.11.11,0,0,1-.06-.11V35.61a.1.1,0,0,1,0-.09.13.13,0,0,1,.1,0h1a1.75,1.75,0,0,1,.62.1.93.93,0,0,1,.44.34,1.18,1.18,0,0,1,.17.67,1.22,1.22,0,0,1-.12.58.84.84,0,0,1-.32.35,1.28,1.28,0,0,1-.45.17l.88,1.67s0,0,0,0v0a.16.16,0,0,1,0,.09.27.27,0,0,1-.08.07ZM89.5,37.41h.77a.94.94,0,0,0,.62-.19.71.71,0,0,0,.23-.61.72.72,0,0,0-.23-.61,1,1,0,0,0-.62-.18H89.5Z"/><path class="cls-1" d="M93.18,39.62a.2.2,0,0,1-.13,0,.11.11,0,0,1-.06-.11V38s0,0,0,0l-1.17-2.25,0-.06a.09.09,0,0,1,0,0,.11.11,0,0,1,0-.08l.08,0a.18.18,0,0,1,.1,0l.08,0a.35.35,0,0,1,.06.09l1.05,2.07,1-2.07.07-.09.08,0a.22.22,0,0,1,.17.07.12.12,0,0,1,0,.08s0,0,0,0l0,.06L93.37,38s0,0,0,0v1.44a.13.13,0,0,1,0,.11A.22.22,0,0,1,93.18,39.62Z"/><path class="cls-1" d="M94.67,39.62l-.1,0-.09-.06a.11.11,0,0,1,0-.08s0,0,0,0l1.18-3.85a.2.2,0,0,1,.08-.1.35.35,0,0,1,.14,0,.28.28,0,0,1,.15,0,.14.14,0,0,1,.08.09l1.18,3.85v0a.16.16,0,0,1,0,.09l-.09.06-.1,0-.09,0a.11.11,0,0,1,0-.08l-.27-.87H95.08l-.26.87a.12.12,0,0,1-.06.08Zm.5-1.29h1.38L95.86,36Z"/><path class="cls-1" d="M98,39.62a.2.2,0,0,1-.13,0s-.05-.06-.05-.11V35.62c0-.06,0-.09.05-.11a.28.28,0,0,1,.13,0,.21.21,0,0,1,.12,0l.1.1a.74.74,0,0,1,.08.13l1.53,3V35.61a.11.11,0,0,1,0-.1.31.31,0,0,1,.13,0,.28.28,0,0,1,.13,0,.1.1,0,0,1,.06.1v3.86a.11.11,0,0,1-.06.11.2.2,0,0,1-.13,0,.17.17,0,0,1-.14-.07.83.83,0,0,1-.11-.15l-1.57-3.06v3.13a.11.11,0,0,1-.06.11A.2.2,0,0,1,98,39.62Z"/><path class="cls-1" d="M102.2,39.65a1.41,1.41,0,0,1-.59-.12.93.93,0,0,1-.43-.38,1.46,1.46,0,0,1-.16-.71V36.68a1.42,1.42,0,0,1,.16-.7.92.92,0,0,1,.43-.38,1.46,1.46,0,0,1,.6-.12,1.34,1.34,0,0,1,.63.13,1,1,0,0,1,.4.34.89.89,0,0,1,.14.47.26.26,0,0,1,0,.18.2.2,0,0,1-.14,0,.18.18,0,0,1-.14,0,.13.13,0,0,1,0-.1c0-.06,0-.13,0-.21a.7.7,0,0,0-.11-.23.76.76,0,0,0-.24-.18,1.16,1.16,0,0,0-.41-.07.81.81,0,0,0-.6.21.89.89,0,0,0-.21.65v1.76a.9.9,0,0,0,.21.66.85.85,0,0,0,.62.21,1.06,1.06,0,0,0,.4-.07.71.71,0,0,0,.23-.18.67.67,0,0,0,.1-.23c0-.08,0-.15.05-.22a.13.13,0,0,1,0-.11.17.17,0,0,1,.13,0,.2.2,0,0,1,.14,0,.26.26,0,0,1,0,.18.92.92,0,0,1-.14.48,1.09,1.09,0,0,1-.41.35A1.36,1.36,0,0,1,102.2,39.65Z"/><path class="cls-1" d="M105.2,39.65a1.46,1.46,0,0,1-.6-.12.93.93,0,0,1-.43-.38,1.46,1.46,0,0,1-.16-.71V35.61a.11.11,0,0,1,.06-.1.3.3,0,0,1,.26,0,.11.11,0,0,1,.06.1v2.83a.9.9,0,0,0,.21.66.84.84,0,0,0,.6.21.81.81,0,0,0,.6-.21.9.9,0,0,0,.21-.66V35.61a.11.11,0,0,1,.06-.1.3.3,0,0,1,.26,0,.11.11,0,0,1,.06.1v2.83a1.36,1.36,0,0,1-.16.71.84.84,0,0,1-.43.38A1.46,1.46,0,0,1,105.2,39.65Z"/><path class="cls-1" d="M107.41,39.62a.2.2,0,0,1-.13,0,.13.13,0,0,1,0-.11V35.62a.12.12,0,0,1,0-.11.28.28,0,0,1,.13,0,.21.21,0,0,1,.12,0l.1.1a.41.41,0,0,1,.08.13l1.53,3V35.61a.11.11,0,0,1,.05-.1.31.31,0,0,1,.13,0,.28.28,0,0,1,.13,0,.1.1,0,0,1,.06.1v3.86a.11.11,0,0,1-.06.11.2.2,0,0,1-.13,0,.17.17,0,0,1-.14-.07.78.78,0,0,1-.1-.15l-1.58-3.06v3.13a.11.11,0,0,1-.06.11A.2.2,0,0,1,107.41,39.62Z"/><path class="cls-1" d="M110.66,39.62a.2.2,0,0,1-.13,0,.11.11,0,0,1-.06-.11V35.62a.11.11,0,0,1,.06-.11.28.28,0,0,1,.13,0,.24.24,0,0,1,.12,0l.1.1a.4.4,0,0,1,.07.13l1.53,3V35.61a.1.1,0,0,1,.06-.1.3.3,0,0,1,.26,0,.1.1,0,0,1,.06.1v3.86a.11.11,0,0,1-.06.11.2.2,0,0,1-.13,0,.17.17,0,0,1-.14-.07.83.83,0,0,1-.11-.15l-1.57-3.06v3.13a.11.11,0,0,1-.06.11A.2.2,0,0,1,110.66,39.62Z"/><path class="cls-1" d="M113.91,39.62a.18.18,0,0,1-.13,0,.11.11,0,0,1-.06-.11V35.61a.11.11,0,0,1,.06-.1.25.25,0,0,1,.13,0l.12,0a.11.11,0,0,1,.06.1v3.86a.11.11,0,0,1-.06.11A.19.19,0,0,1,113.91,39.62Z"/><path class="cls-1" d="M115.14,39.62a.2.2,0,0,1-.13,0,.11.11,0,0,1-.06-.11V35.62a.11.11,0,0,1,.06-.11.28.28,0,0,1,.13,0,.21.21,0,0,1,.12,0l.1.1a.74.74,0,0,1,.08.13l1.53,3V35.61a.11.11,0,0,1,0-.1.3.3,0,0,1,.26,0,.1.1,0,0,1,.06.1v3.86a.11.11,0,0,1-.06.11.2.2,0,0,1-.13,0,.17.17,0,0,1-.14-.07.83.83,0,0,1-.11-.15l-1.57-3.06v3.13a.11.11,0,0,1-.06.11A.2.2,0,0,1,115.14,39.62Z"/><path class="cls-1" d="M119.33,39.65a1.45,1.45,0,0,1-.59-.12.86.86,0,0,1-.42-.38,1.36,1.36,0,0,1-.16-.71V36.68a1.32,1.32,0,0,1,.16-.7.82.82,0,0,1,.42-.38,1.38,1.38,0,0,1,.59-.12,1.54,1.54,0,0,1,.63.12,1.09,1.09,0,0,1,.41.35.9.9,0,0,1,.15.51.21.21,0,0,1,0,.15.21.21,0,0,1-.14,0,.2.2,0,0,1-.13,0,.14.14,0,0,1-.06-.1.85.85,0,0,0-.12-.38.56.56,0,0,0-.27-.23,1,1,0,0,0-.42-.08.78.78,0,0,0-.58.21.89.89,0,0,0-.21.65v1.76a.89.89,0,0,0,.21.65.75.75,0,0,0,.58.22.78.78,0,0,0,.6-.22.89.89,0,0,0,.21-.65v-.67h-.75a.13.13,0,0,1-.11-.06.21.21,0,0,1,0-.11.25.25,0,0,1,0-.11.14.14,0,0,1,.11-.05h1a.15.15,0,0,1,.1,0,.15.15,0,0,1,0,.11v.85a1.36,1.36,0,0,1-.16.71,1,1,0,0,1-.42.38A1.48,1.48,0,0,1,119.33,39.65Z"/><path class="cls-1" d="M121.46,39.62a.2.2,0,0,1-.13,0,.11.11,0,0,1-.06-.11V35.61a.11.11,0,0,1,.06-.1.28.28,0,0,1,.13,0,.31.31,0,0,1,.13,0,.11.11,0,0,1,.06.1v1.7h1.63v-1.7a.11.11,0,0,1,.06-.1.3.3,0,0,1,.26,0,.11.11,0,0,1,.06.1v3.86a.11.11,0,0,1-.06.11.23.23,0,0,1-.26,0,.11.11,0,0,1-.06-.11V37.63h-1.63v1.84a.11.11,0,0,1-.06.11A.22.22,0,0,1,121.46,39.62Z"/><path class="cls-1" d="M124.42,39.62l-.1,0a.24.24,0,0,1-.08-.06.09.09,0,0,1,0-.08s0,0,0,0l1.18-3.85a.18.18,0,0,1,.09-.1.28.28,0,0,1,.13,0,.26.26,0,0,1,.15,0,.14.14,0,0,1,.08.09L127,39.42v0a.16.16,0,0,1,0,.09l-.09.06-.1,0-.09,0a.11.11,0,0,1,0-.08l-.27-.87h-1.56l-.26.87a.12.12,0,0,1-.06.08Zm.5-1.29h1.38L125.61,36Z"/><path class="cls-1" d="M127.75,39.62a.2.2,0,0,1-.13,0,.13.13,0,0,1-.05-.11V35.66a.17.17,0,0,1,.05-.14.2.2,0,0,1,.13,0,.28.28,0,0,1,.13,0l.09.1a.35.35,0,0,1,.08.13l1,1.88,1-1.88.09-.13a.43.43,0,0,1,.09-.1.27.27,0,0,1,.12,0,.21.21,0,0,1,.14,0,.17.17,0,0,1,.05.14v3.81a.11.11,0,0,1-.06.11.18.18,0,0,1-.13,0,.19.19,0,0,1-.12,0,.11.11,0,0,1-.06-.11V36.29l-.94,1.78a.36.36,0,0,1-.08.09.15.15,0,0,1-.15,0,.22.22,0,0,1-.07-.09l-.94-1.8v3.2a.11.11,0,0,1-.06.11A.2.2,0,0,1,127.75,39.62Z"/><path class="cls-1" d="M131.54,39.62a.2.2,0,0,1-.13,0,.11.11,0,0,1-.06-.11V35.61a.11.11,0,0,1,.06-.1.28.28,0,0,1,.13,0,.31.31,0,0,1,.13,0,.11.11,0,0,1,.06.1v1.7h1.63v-1.7a.11.11,0,0,1,.06-.1.3.3,0,0,1,.26,0,.11.11,0,0,1,.06.1v3.86a.11.11,0,0,1-.06.11.23.23,0,0,1-.26,0,.11.11,0,0,1-.06-.11V37.63h-1.63v1.84a.11.11,0,0,1-.06.11A.22.22,0,0,1,131.54,39.62Z"/><path class="cls-1" d="M134.5,39.62l-.1,0a.24.24,0,0,1-.08-.06.09.09,0,0,1,0-.08s0,0,0,0l1.18-3.85a.18.18,0,0,1,.09-.1.28.28,0,0,1,.13,0,.28.28,0,0,1,.15,0,.14.14,0,0,1,.08.09l1.18,3.85v0a.16.16,0,0,1,0,.09l-.09.06-.1,0-.09,0a.11.11,0,0,1,0-.08l-.27-.87h-1.56l-.26.87a.12.12,0,0,1-.06.08Zm.5-1.29h1.38L135.69,36Z"/><path class="cls-1" d="M137.83,39.62a.2.2,0,0,1-.13,0,.13.13,0,0,1,0-.11V35.61a.12.12,0,0,1,0-.1.3.3,0,0,1,.26,0,.11.11,0,0,1,.06.1v3.86a.11.11,0,0,1-.06.11A.2.2,0,0,1,137.83,39.62Z"/><path class="cls-1" d="M141.05,39.62a.16.16,0,0,1-.12-.06.57.57,0,0,1-.08-.13l-.88-1.7h-.71v1.74a.11.11,0,0,1-.06.11.22.22,0,0,1-.13,0,.2.2,0,0,1-.13,0,.11.11,0,0,1-.06-.11V35.61a.1.1,0,0,1,0-.09.13.13,0,0,1,.1,0h1a1.74,1.74,0,0,1,.61.1.93.93,0,0,1,.44.34,1.18,1.18,0,0,1,.17.67,1.22,1.22,0,0,1-.12.58.81.81,0,0,1-.31.35,1.44,1.44,0,0,1-.45.17l.87,1.67,0,0v0a.16.16,0,0,1,0,.09.27.27,0,0,1-.08.07Zm-1.79-2.21H140a.93.93,0,0,0,.61-.19.71.71,0,0,0,.24-.61.72.72,0,0,0-.24-.61,1,1,0,0,0-.61-.18h-.77Z"/><path class="cls-1" d="M141.93,39.65a.22.22,0,0,1-.19-.08.24.24,0,0,1-.07-.18.26.26,0,0,1,.07-.19.26.26,0,0,1,.19-.08.25.25,0,0,1,.18.08.26.26,0,0,1,.07.19.24.24,0,0,1-.07.18A.22.22,0,0,1,141.93,39.65Z"/><path class="cls-1" d="M143.92,39.65a1.45,1.45,0,0,1-.59-.12.93.93,0,0,1-.43-.38,1.47,1.47,0,0,1-.15-.71V36.68a1.32,1.32,0,0,1,.16-.7.84.84,0,0,1,.43-.38,1.41,1.41,0,0,1,.59-.12,1.34,1.34,0,0,1,.63.13.9.9,0,0,1,.4.34.81.81,0,0,1,.14.47c0,.09,0,.15,0,.18a.17.17,0,0,1-.13,0,.21.21,0,0,1-.15,0,.13.13,0,0,1,0-.1c0-.06,0-.13,0-.21a.7.7,0,0,0-.11-.23.76.76,0,0,0-.24-.18,1.1,1.1,0,0,0-.4-.07.82.82,0,0,0-.61.21.89.89,0,0,0-.21.65v1.76a.9.9,0,0,0,.21.66.85.85,0,0,0,.62.21,1,1,0,0,0,.4-.07.62.62,0,0,0,.23-.18.67.67,0,0,0,.1-.23,2.25,2.25,0,0,0,0-.22.13.13,0,0,1,.05-.11.17.17,0,0,1,.13,0,.2.2,0,0,1,.14,0s0,.09,0,.18a.84.84,0,0,1-.14.48,1.06,1.06,0,0,1-.4.35A1.41,1.41,0,0,1,143.92,39.65Z"/><path class="cls-1" d="M146.89,39.65a1.41,1.41,0,0,1-.59-.12.86.86,0,0,1-.42-.38,1.36,1.36,0,0,1-.16-.71V36.68a1.32,1.32,0,0,1,.16-.7.82.82,0,0,1,.42-.38,1.38,1.38,0,0,1,.59-.12,1.4,1.4,0,0,1,.6.12.88.88,0,0,1,.43.38,1.42,1.42,0,0,1,.16.7v1.76a1.46,1.46,0,0,1-.16.71.93.93,0,0,1-.43.38A1.4,1.4,0,0,1,146.89,39.65Zm0-.34a.83.83,0,0,0,.6-.21.9.9,0,0,0,.21-.66V36.68a.89.89,0,0,0-.21-.65.83.83,0,0,0-.6-.21.8.8,0,0,0-.59.21.89.89,0,0,0-.21.65v1.76a.9.9,0,0,0,.21.66A.8.8,0,0,0,146.89,39.31Z"/><path class="cls-1" d="M149.08,39.62a.2.2,0,0,1-.13,0,.11.11,0,0,1-.06-.11V35.66c0-.07,0-.12.06-.14a.2.2,0,0,1,.13,0,.21.21,0,0,1,.12,0,.47.47,0,0,1,.1.1.57.57,0,0,1,.08.13l1,1.88,1-1.88.08-.13.1-.1.12,0a.18.18,0,0,1,.13,0s.06.07.06.14v3.81a.11.11,0,0,1-.06.11.23.23,0,0,1-.26,0,.11.11,0,0,1-.06-.11V36.29l-.94,1.78a.22.22,0,0,1-.07.09.12.12,0,0,1-.08,0,.1.1,0,0,1-.07,0,.24.24,0,0,1-.08-.09l-.93-1.8v3.2a.11.11,0,0,1-.06.11A.2.2,0,0,1,149.08,39.62Z"/><line class="cls-2" x1="81.14" y1="38.03" y2="38.03"/><line class="cls-2" x1="240.95" y1="38.03" x2="159.81" y2="38.03"/><line class="cls-2" x1="0.51" y1="0.51" x2="240.95" y2="0.51"/><line class="cls-2" x1="0.51" x2="0.51" y2="38"/><line class="cls-2" x1="240.44" y1="0.03" x2="240.44" y2="38.03"/></g></g></svg>