<svg xmlns="http://www.w3.org/2000/svg" viewBox="0 0 48.5 48.5"><defs><style>.cls-1{fill:#0b141f;}.cls-2{fill:none;stroke:#0b141f;stroke-miterlimit:10;}</style></defs><g id="Layer_2" data-name="Layer 2"><g id="Layer_1-2" data-name="Layer 1"><path class="cls-1" d="M4.74,10A1.24,1.24,0,0,1,6,8.77h7.61c5,0,9.23,2,9.23,8.31,0,5.07-2.71,7.4-6.2,8.11l6.15,11.67a1.11,1.11,0,0,1,.17.58,2.11,2.11,0,0,1-2.08,1.79c-.7,0-1.2-.66-1.58-1.37L13,25.68H8.23V37.9c0,.83-.87,1.25-1.75,1.25s-1.74-.42-1.74-1.25Zm3.49,2V22.77h5.36c3.45,0,5.73-1.49,5.73-5.44s-2.28-5.4-5.73-5.4Z"/><path class="cls-1" d="M29,30.84c0,4.86,2.37,7.06,6.9,7.06,5.49,0,6-3.28,6.36-5.44,0-.38.13-.75.75-.75s.75.25.75,1.2c0,3.2-2.79,6.49-8.11,6.49-4.44,0-8.14-2.33-8.14-8.56V17.33c0-6.23,3.78-8.56,8.27-8.56,5.32,0,8,3.28,8,6.52,0,1-.25,1.17-.75,1.17-.71,0-.75-.46-.75-.75-.12-2-1.12-5.44-6.52-5.44-4.37,0-6.74,2.24-6.74,7.06Z"/><path class="cls-2" d="M17,48H.5V.5H48V48H31.37"/></g></g></svg>